<svg width="534" height="403" viewBox="0 0 534 403" fill="none" xmlns="http://www.w3.org/2000/svg">
<path d="M207.688 349.817V321.147H133.312V349.817C133.312 358.208 128.367 365.813 120.693 369.221L85.5 384.851H255.5L220.307 369.221C212.633 365.813 207.688 358.208 207.688 349.817Z" fill="#AAA9A8"/>
<path d="M255.5 384.851H85.5V393.344H255.5V384.851Z" fill="#C7C6C4"/>
<path d="M340.5 292.835H0.5V87.8117C0.5 79.0779 7.5856 71.9975 16.3259 71.9975H324.674C333.414 71.9975 340.5 79.0779 340.5 87.8117V292.835Z" fill="#323131"/>
<path d="M317.833 270.185H23.1667V94.6476H317.833V270.185Z" fill="#00A8FF" fill-opacity="0.98"/>
<path d="M196.567 256.029H40.1666V158.634H196.567V256.029Z" fill="white"/>
<path d="M69.2582 158.634H49.69L40.1666 168.15V187.704L69.2582 158.634Z" fill="#323131"/>
<path d="M196.567 226.959V207.404L147.906 256.029H167.475L196.567 226.959Z" fill="#323131"/>
<path d="M108.77 256.029H128.338L196.567 187.851V168.297L108.77 256.029Z" fill="#323131"/>
<path d="M69.6333 256.029H89.2014L186.668 158.634H167.1L69.6333 256.029Z" fill="#323131"/>
<path d="M187.043 256.029H196.567V246.512L187.043 256.029Z" fill="#323131"/>
<path d="M147.532 158.634H127.963L40.1666 246.366V256.029H50.0652L147.532 158.634Z" fill="#323131"/>
<path d="M108.395 158.634H88.8269L40.1666 207.258V226.812L108.395 158.634Z" fill="#323131"/>
<path d="M40.1666 108.804V135.984H196.567V108.804H40.1666Z" fill="white"/>
<path d="M40.8466 110.502H39.4866V108.124H41.8666V109.483H40.8466V110.502Z" fill="#323131"/>
<path d="M40.8466 117.297H39.4866V113.9H40.8466V117.297ZM40.8466 124.092H39.4866V120.695H40.8466V124.092ZM40.8466 130.887H39.4866V127.49H40.8466V130.887Z" fill="#323131"/>
<path d="M41.8666 136.663H39.4866V134.285H40.8466V135.304H41.8666V136.663Z" fill="#323131"/>
<path d="M48.6667 136.663H45.2667V135.304H48.6667V136.663ZM55.4667 136.663H52.0667V135.304H55.4667V136.663ZM62.2667 136.663H58.8667V135.304H62.2667V136.663ZM69.0667 136.663H65.6667V135.304H69.0667V136.663ZM75.8667 136.663H72.4667V135.304H75.8667V136.663ZM82.6667 136.663H79.2667V135.304H82.6667V136.663ZM89.4667 136.663H86.0667V135.304H89.4667V136.663ZM96.2667 136.663H92.8667V135.304H96.2667V136.663ZM103.067 136.663H99.6667V135.304H103.067V136.663ZM109.867 136.663H106.467V135.304H109.867V136.663ZM116.667 136.663H113.267V135.304H116.667V136.663ZM123.467 136.663H120.067V135.304H123.467V136.663ZM130.267 136.663H126.867V135.304H130.267V136.663ZM137.067 136.663H133.667V135.304H137.067V136.663ZM143.867 136.663H140.467V135.304H143.867V136.663ZM150.667 136.663H147.267V135.304H150.667V136.663ZM157.467 136.663H154.067V135.304H157.467V136.663ZM164.267 136.663H160.867V135.304H164.267V136.663ZM171.067 136.663H167.667V135.304H171.067V136.663ZM177.867 136.663H174.467V135.304H177.867V136.663ZM184.667 136.663H181.267V135.304H184.667V136.663ZM191.467 136.663H188.067V135.304H191.467V136.663Z" fill="#323131"/>
<path d="M197.247 136.663H194.867V135.304H195.887V134.285H197.247V136.663Z" fill="#323131"/>
<path d="M197.247 117.297H195.887V113.9H197.247V117.297ZM197.247 124.092H195.887V120.695H197.247V124.092ZM197.247 130.887H195.887V127.49H197.247V130.887Z" fill="#323131"/>
<path d="M197.247 110.502H195.887V109.483H194.867V108.124H197.247V110.502Z" fill="#323131"/>
<path d="M48.6667 109.483H45.2667V108.124H48.6667V109.483ZM55.4667 109.483H52.0667V108.124H55.4667V109.483ZM62.2667 109.483H58.8667V108.124H62.2667V109.483ZM69.0667 109.483H65.6667V108.124H69.0667V109.483ZM75.8667 109.483H72.4667V108.124H75.8667V109.483ZM82.6667 109.483H79.2667V108.124H82.6667V109.483ZM89.4667 109.483H86.0667V108.124H89.4667V109.483ZM96.2667 109.483H92.8667V108.124H96.2667V109.483ZM103.067 109.483H99.6667V108.124H103.067V109.483ZM109.867 109.483H106.467V108.124H109.867V109.483ZM116.667 109.483H113.267V108.124H116.667V109.483ZM123.467 109.483H120.067V108.124H123.467V109.483ZM130.267 109.483H126.867V108.124H130.267V109.483ZM137.067 109.483H133.667V108.124H137.067V109.483ZM143.867 109.483H140.467V108.124H143.867V109.483ZM150.667 109.483H147.267V108.124H150.667V109.483ZM157.467 109.483H154.067V108.124H157.467V109.483ZM164.267 109.483H160.867V108.124H164.267V109.483ZM171.067 109.483H167.667V108.124H171.067V109.483ZM177.867 109.483H174.467V108.124H177.867V109.483ZM184.667 109.483H181.267V108.124H184.667V109.483ZM191.467 109.483H188.067V108.124H191.467V109.483Z" fill="#323131"/>
<path d="M323.5 326.81H17.5C8.1109 326.81 0.5 319.205 0.5 309.823V292.835H340.5V309.823C340.5 319.205 332.889 326.81 323.5 326.81Z" fill="#C7C6C4"/>
<path d="M213.567 256.029H300.833V227.716H213.567V256.029Z" fill="white"/>
<path d="M232.379 189.061L256.634 152.705C256.892 152.321 257.508 152.321 257.766 152.705L282.021 189.061L283.153 188.308L258.897 151.952C258.14 150.816 256.26 150.816 255.503 151.952L231.247 188.308L232.379 189.061Z" fill="#323131"/>
<path d="M213.567 210.729H300.833V182.416H213.567V210.729Z" fill="#CCEDEB"/>
<path d="M215.267 211.408H212.887V209.03H214.247V210.049H215.267V211.408Z" fill="#323131"/>
<path d="M221.976 211.408H218.621V210.049H221.976V211.408ZM228.685 211.408H225.331V210.049H228.685V211.408ZM235.395 211.408H232.04V210.049H235.395V211.408ZM242.104 211.408H238.749V210.049H242.104V211.408ZM248.813 211.408H245.459V210.049H248.813V211.408ZM255.523 211.408H252.168V210.049H255.523V211.408ZM262.232 211.408H258.877V210.049H262.232V211.408ZM268.941 211.408H265.587V210.049H268.941V211.408ZM275.651 211.408H272.296V210.049H275.651V211.408ZM282.36 211.408H279.005V210.049H282.36V211.408ZM289.069 211.408H285.715V210.049H289.069V211.408ZM295.779 211.408H292.424V210.049H295.779V211.408Z" fill="#323131"/>
<path d="M301.513 211.408H299.133V210.049H300.153V209.03H301.513V211.408Z" fill="#323131"/>
<path d="M301.513 191.233H300.153V187.675H301.513V191.233ZM301.513 198.352H300.153V194.793H301.513V198.352ZM301.513 205.471H300.153V201.912H301.513V205.471Z" fill="#323131"/>
<path d="M301.513 184.115H300.153V183.096H299.133V181.737H301.513V184.115Z" fill="#323131"/>
<path d="M221.976 183.096H218.621V181.737H221.976V183.096ZM228.685 183.096H225.331V181.737H228.685V183.096ZM235.395 183.096H232.04V181.737H235.395V183.096ZM242.104 183.096H238.749V181.737H242.104V183.096ZM248.813 183.096H245.459V181.737H248.813V183.096ZM255.523 183.096H252.168V181.737H255.523V183.096ZM262.232 183.096H258.877V181.737H262.232V183.096ZM268.941 183.096H265.587V181.737H268.941V183.096ZM275.651 183.096H272.296V181.737H275.651V183.096ZM282.36 183.096H279.005V181.737H282.36V183.096ZM289.069 183.096H285.715V181.737H289.069V183.096ZM295.779 183.096H292.424V181.737H295.779V183.096Z" fill="#323131"/>
<path d="M214.247 184.115H212.887V181.737H215.267V183.096H214.247V184.115Z" fill="#323131"/>
<path d="M214.247 191.233H212.887V187.675H214.247V191.233ZM214.247 198.352H212.887V194.793H214.247V198.352ZM214.247 205.471H212.887V201.912H214.247V205.471Z" fill="#323131"/>
<path d="M257.2 153.351C261.7 153.351 265.36 149.693 265.36 145.197C265.36 141.163 262.414 137.804 258.56 137.155V131.526H255.84V139.761H257.2C260.2 139.761 262.64 142.198 262.64 145.197C262.64 148.194 260.2 150.633 257.2 150.633C254.2 150.633 251.76 148.194 251.76 145.197H249.04C249.04 149.693 252.7 153.351 257.2 153.351Z" fill="#6A6969"/>
<path d="M250.4 131.454H264V117.297H250.4V131.454Z" fill="#323131"/>
<path d="M250.4 117.297H251.76V90.1174H250.4V117.297Z" fill="#323131"/>
<path d="M262.64 117.297H264V90.1174H262.64V117.297Z" fill="#323131"/>
<path d="M190.9 250.366H45.8333V164.296H190.9V250.366Z" fill="white"/>
<path d="M202.41 59.177L202.057 57.8645L401.234 4.44953L401.48 4.59563L491.579 57.9364L490.888 59.1051L401.033 5.91044L202.41 59.177Z" fill="#323131"/>
<path d="M389.233 372.11H413.033V103.708H389.233V372.11ZM416.433 375.508H385.833V100.31H416.433V375.508Z" fill="white"/>
<path d="M388.735 375.01L386.331 372.608L413.531 345.428L415.935 347.83L388.735 375.01Z" fill="white"/>
<path d="M414.733 348.327H387.533V344.93H414.733V348.327Z" fill="white"/>
<path d="M388.735 347.83L386.331 345.428L413.531 318.248L415.935 320.65L388.735 347.83Z" fill="white"/>
<path d="M414.733 321.147H387.533V317.75H414.733V321.147Z" fill="white"/>
<path d="M388.735 320.65L386.331 318.248L413.531 291.068L415.935 293.47L388.735 320.65Z" fill="white"/>
<path d="M414.733 293.968H387.533V290.57H414.733V293.968Z" fill="white"/>
<path d="M388.735 293.47L386.331 291.068L413.531 263.888L415.935 266.29L388.735 293.47Z" fill="white"/>
<path d="M414.733 266.788H387.533V263.39H414.733V266.788Z" fill="white"/>
<path d="M388.735 266.29L386.331 263.888L413.531 236.708L415.935 239.11L388.735 266.29Z" fill="white"/>
<path d="M414.733 239.607H387.533V236.21H414.733V239.607Z" fill="white"/>
<path d="M388.735 239.11L386.331 236.708L413.531 209.528L415.935 211.93L388.735 239.11Z" fill="white"/>
<path d="M414.733 212.427H387.533V209.03H414.733V212.427Z" fill="white"/>
<path d="M388.735 211.93L386.331 209.528L413.531 182.348L415.935 184.75L388.735 211.93Z" fill="white"/>
<path d="M414.733 185.248H387.533V181.85H414.733V185.248Z" fill="white"/>
<path d="M388.735 184.75L386.331 182.348L413.531 155.168L415.935 157.57L388.735 184.75Z" fill="white"/>
<path d="M414.733 158.067H387.533V154.67H414.733V158.067Z" fill="white"/>
<path d="M388.735 157.57L386.331 155.168L413.531 127.988L415.935 130.39L388.735 157.57Z" fill="white"/>
<path d="M414.733 130.887H387.533V127.49H414.733V130.887Z" fill="white"/>
<path d="M388.735 130.39L386.331 127.988L413.531 100.808L415.935 103.21L388.735 130.39Z" fill="white"/>
<path d="M387.533 103.708H414.733V100.31H387.533V103.708Z" fill="white"/>
<path d="M402.317 5.56181L389.118 54.7876L385.833 53.9082L399.033 4.68241L402.317 5.56181Z" fill="white"/>
<path d="M399.95 5.56181L413.149 54.7876L416.433 53.9082L403.234 4.68241L399.95 5.56181Z" fill="white"/>
<path d="M414.733 54.7876H387.533V51.3901H414.733V54.7876Z" fill="white"/>
<path d="M408.35 29.8856L409.366 33.6749L388.735 54.2898L387.661 53.2162L388.634 49.5865L408.35 29.8856Z" fill="white"/>
<path d="M393.917 29.8855H408.35L409.261 33.283H393.006L393.917 29.8855Z" fill="white"/>
<path d="M390.933 88.4187H360.333V85.0212H390.933V88.4187Z" fill="white"/>
<path d="M390.933 57.8413V61.2388H360.333V57.8413H390.933Z" fill="white"/>
<path d="M530.333 61.2387H424.933V85.0212H530.333V61.2387ZM421.533 57.8412H533.733V88.4187H421.533V57.8412Z" fill="white"/>
<path d="M506.035 87.9209L533.235 60.7409L530.832 58.3389L503.632 85.5189L506.035 87.9209Z" fill="white"/>
<path d="M503.133 86.72H506.533V59.54H503.133V86.72Z" fill="white"/>
<path d="M478.835 87.9209L506.035 60.7409L503.632 58.3389L476.432 85.5189L478.835 87.9209Z" fill="white"/>
<path d="M475.933 86.72H479.333V59.54H475.933V86.72Z" fill="white"/>
<path d="M451.635 87.9209L478.835 60.7409L476.432 58.3389L449.231 85.5189L451.635 87.9209Z" fill="white"/>
<path d="M448.733 86.72H452.133V59.54H448.733V86.72Z" fill="white"/>
<path d="M424.435 87.9209L451.635 60.7409L449.231 58.3389L422.031 85.5189L424.435 87.9209Z" fill="white"/>
<path d="M421.533 86.72H424.933V59.54H421.533V86.72Z" fill="white"/>
<path d="M508.233 90.1174H474.233V56.1424H508.233V90.1174Z" fill="#323131"/>
<path d="M367.133 389.097H435.133V375.507H367.133V389.097Z" fill="#323131"/>
<path d="M424.933 96.9126H377.333V69.7326C377.333 58.4744 386.467 49.3476 397.733 49.3476H424.933V96.9126Z" fill="white"/>
<path d="M411.333 83.3225H384.133V69.7325C384.133 62.2269 390.222 56.1425 397.733 56.1425H411.333V83.3225Z" fill="#AC8B5B"/>
<path d="M411.333 83.3225H384.133V69.7325C384.133 62.2269 390.222 56.1425 397.733 56.1425H411.333V83.3225Z" fill="#CBDFEF"/>
<path d="M373.933 103.708H428.333V96.9125H373.933V103.708Z" fill="#323131"/>
<path d="M396.033 5.17987C396.033 2.36504 398.317 0.0836229 401.133 0.0836229C403.95 0.0836229 406.233 2.36504 406.233 5.17987C406.233 7.99414 403.95 10.2761 401.133 10.2761C398.317 10.2761 396.033 7.99414 396.033 5.17987Z" fill="#323131"/>
<path d="M384.133 69.7325C384.133 64.7008 386.877 60.3186 390.944 57.9692L411.333 69.7325V83.3225H407.689L384.133 69.7325Z" fill="#ECF4F9"/>
<path d="M384.133 83.3225V74.707L399.067 83.3225H384.133Z" fill="#ECF4F9"/>
<path d="M353.035 87.9209L380.235 60.7409L377.831 58.3389L350.631 85.5189L353.035 87.9209Z" fill="white"/>
<path d="M350.133 86.72H353.533V59.54H350.133V86.72Z" fill="white"/>
<path d="M325.835 87.9209L353.035 60.7409L350.631 58.3389L323.431 85.5189L325.835 87.9209Z" fill="white"/>
<path d="M322.933 86.72H326.333V59.54H322.933V86.72Z" fill="white"/>
<path d="M298.635 87.9209L325.835 60.7409L323.431 58.3389L296.231 85.5189L298.635 87.9209Z" fill="white"/>
<path d="M295.733 86.72H299.133V59.54H295.733V86.72Z" fill="white"/>
<path d="M271.435 87.9209L298.635 60.7409L296.231 58.3389L269.031 85.5189L271.435 87.9209Z" fill="white"/>
<path d="M268.533 86.72H271.933V59.54H268.533V86.72Z" fill="white"/>
<path d="M244.235 87.9209L271.435 60.7409L269.031 58.3389L241.831 85.5189L244.235 87.9209Z" fill="white"/>
<path d="M241.333 86.72H244.733V59.54H241.333V86.72Z" fill="white"/>
<path d="M217.035 87.9209L244.235 60.7409L241.831 58.3389L214.631 85.5189L217.035 87.9209Z" fill="white"/>
<path d="M214.133 86.72H217.533V59.54H214.133V86.72Z" fill="white"/>
<path d="M377.333 85.0212H190.333V61.2387H377.333V85.0212ZM186.933 63.6407V85.0212H165.537L186.933 63.6407ZM187.929 57.8412L160.729 85.0212V88.4187H380.733V57.8412H187.929Z" fill="white"/>
<path d="M189.835 87.9209L217.035 60.7409L214.631 58.3389L187.431 85.5189L189.835 87.9209Z" fill="white"/>
<path d="M380.733 395.892C380.733 399.645 377.689 402.688 373.933 402.688C370.178 402.688 367.133 399.645 367.133 395.892C367.133 392.14 370.178 389.097 373.933 389.097C377.689 389.097 380.733 392.14 380.733 395.892Z" fill="#323131"/>
<path d="M417 395.892C417 399.645 413.956 402.688 410.2 402.688C406.445 402.688 403.4 399.645 403.4 395.892C403.4 392.14 406.445 389.097 410.2 389.097C413.956 389.097 417 392.14 417 395.892Z" fill="#323131"/>
<path d="M398.867 395.892C398.867 399.645 395.822 402.688 392.067 402.688C388.311 402.688 385.267 399.645 385.267 395.892C385.267 392.14 388.311 389.097 392.067 389.097C395.822 389.097 398.867 392.14 398.867 395.892Z" fill="#323131"/>
<path d="M435.133 395.892C435.133 399.645 432.089 402.688 428.333 402.688C424.578 402.688 421.533 399.645 421.533 395.892C421.533 392.14 424.578 389.097 428.333 389.097C432.089 389.097 435.133 392.14 435.133 395.892Z" fill="#323131"/>
</svg>
